PathFileType	4	(X/Y/Z)	C:\Users\Basilio\Documents\Thesis Gigler\squatting_fais\c3dfiles\073\SLS_front_pre2\markers_experimental.trc
DataRate	CameraRate	NumFrames	NumMarkers	Units	OrigDataRate	OrigDataStartFrame	OrigNumFrames
200.000000	200.000000	4	61	mm	200.000000	166	1328
Frame#	Time	FHD			LBHD			RBHD			C7			T10			CLAV			LSHO			LUUPA			LMUPA			LDUPA			LLEP			LMEP			LRAD			LUL			LRFIN			RSHO			RUPA1			RMUPA			RDUPA			RLEP			RMEP			RRAD			RUL			RUFIN			LASI			RASI			USACR			LSACR			RSACR			LTHI1			LTHI2			LTHI3			LTHI4			LLFC			LMFC			LTIB1			LTIB2			LTIB3			LTIB4			LLMAL			LMMAL			LHEE			LMT1			LMT2			LMT5			RTHI			RTHI2			RTHI3			RTHI4			RLFC			RMFC			RTIB1			RTIB2			RTIB3			RTIB4			RLMAL			RMMAL			RHEE			RMT1			RMT2			RMT5			
		X1	Y1	Z1	X2	Y2	Z2	X3	Y3	Z3	X4	Y4	Z4	X5	Y5	Z5	X6	Y6	Z6	X7	Y7	Z7	X8	Y8	Z8	X9	Y9	Z9	X10	Y10	Z10	X11	Y11	Z11	X12	Y12	Z12	X13	Y13	Z13	X14	Y14	Z14	X15	Y15	Z15	X16	Y16	Z16	X17	Y17	Z17	X18	Y18	Z18	X19	Y19	Z19	X20	Y20	Z20	X21	Y21	Z21	X22	Y22	Z22	X23	Y23	Z23	X24	Y24	Z24	X25	Y25	Z25	X26	Y26	Z26	X27	Y27	Z27	X28	Y28	Z28	X29	Y29	Z29	X30	Y30	Z30	X31	Y31	Z31	X32	Y32	Z32	X33	Y33	Z33	X34	Y34	Z34	X35	Y35	Z35	X36	Y36	Z36	X37	Y37	Z37	X38	Y38	Z38	X39	Y39	Z39	X40	Y40	Z40	X41	Y41	Z41	X42	Y42	Z42	X43	Y43	Z43	X44	Y44	Z44	X45	Y45	Z45	X46	Y46	Z46	X47	Y47	Z47	X48	Y48	Z48	X49	Y49	Z49	X50	Y50	Z50	X51	Y51	Z51	X52	Y52	Z52	X53	Y53	Z53	X54	Y54	Z54	X55	Y55	Z55	X56	Y56	Z56	X57	Y57	Z57	X58	Y58	Z58	X59	Y59	Z59	X60	Y60	Z60	X61	Y61	Z61	

167	0.8300000000000001	-240.9598083496094	1702.912719726563	-802.473327636719	-373.9564514160157	1669.433837890625	-830.8011474609377	-399.9274291992189	1648.9189453125	-698.3341674804689	-431.0019836425782	1544.326538085938	-763.8737182617189	-449.8527832031251	1203.369750976563	-769.5169067382815	-303.6619873046876	1467.115600585938	-763.5804443359376	-328.3915710449219	1499.945556640625	-917.4534912109377	-248.3589019775391	1403.88916015625	-1000.743286132813	-205.219955444336	1421.80322265625	-980.5593261718752	-189.4448699951172	1369.239501953125	-1008.197814941406	-89.12637329101564	1332.100708007813	-1008.386413574219	-100.7370986938477	1278.441650390625	-960.9339599609377	165.8310241699219	1333.493774414063	-883.6638793945315	171.6846618652344	1326.447021484375	-957.8248291015627	248.2622222900391	1333.335083007813	-875.1004028320315	-320.1789550781251	1491.662841796875	-611.4421386718751	-232.2575836181641	1374.694091796875	-520.9067382812501	-190.9303741455078	1394.068115234375	-535.7862548828126	-171.7688598632813	1341.16259765625	-515.4907836914064	-81.83739471435548	1316.12548828125	-516.5496215820314	-92.17050170898439	1262.710693359375	-579.6552124023439	165.3322448730469	1331.699951171875	-650.6013793945314	179.0801544189453	1338.108764648438	-575.2481079101564	255.3418731689454	1349.327026367188	-659.0501708984376	-274.7124938964844	1061.590454101563	-908.142517089844	-265.5285034179688	1038.147827148438	-654.9772949218751	-457.5806884765626	1102.012817382813	-768.501159667969	-470.0611572265626	1074.627685546875	-798.2561645507815	-470.6685485839845	1068.797973632813	-742.4374389648439	-310.4780273437501	736.8737182617189	-969.7437744140627	-274.9970703125001	661.2578735351564	-954.9319458007815	-234.4193267822266	665.7955322265626	-926.5784912109377	-303.3915405273438	609.4329833984376	-948.4290771484377	-305.8433227539063	547.8117065429689	-948.8616943359377	-307.2680664062501	540.4567871093751	-810.5493774414065	-264.5867919921876	348.0351257324219	-900.945495605469	-325.0095825195313	310.3998718261719	-951.394714355469	-283.9259338378907	301.7155761718751	-932.572937011719	-287.1217041015626	223.2816009521485	-899.4099121093752	-356.1746215820313	110.6380844116211	-922.2442626953127	-342.8067321777344	134.2649841308594	-839.608337402344	-416.7428588867189	88.90090179443361	-881.2998657226565	-197.987045288086	54.24589157104494	-839.6184082031252	-195.2195739746094	51.7562942504883	-878.155700683594	-232.9867401123047	35.04788970947266	-933.3520507812502	-363.2337036132813	802.0999145507815	-602.4526367187501	-329.6755676269532	745.0554809570314	-603.1190795898439	-296.0222778320313	745.7888183593751	-605.1699218750001	-358.5318298339844	670.1625366210939	-629.8832397460939	-343.2303466796876	520.8598632812501	-653.9788818359376	-332.3969726562501	516.1131591796876	-784.654479980469	-296.8542175292969	363.5121765136719	-749.6506347656251	-324.1326904296876	277.6995544433594	-687.9380493164064	-298.4344787597657	278.9161987304688	-728.7702026367189	-314.5166625976563	235.9227905273438	-765.0150146484376	-367.5273132324219	102.2042312622071	-723.0779418945314	-356.8338623046876	130.9270629882813	-807.4825439453127	-433.938446044922	83.74259185791017	-782.020690917969	-208.6355438232422	56.51805877685548	-786.3696899414065	-210.9299468994141	52.26173019409181	-745.3350830078126	-256.4635925292969	34.2855339050293	-699.6395263671876	
168	0.835	-241.1456756591797	1702.831298828125	-802.0213623046877	-373.9876708984376	1669.381469726563	-830.4246215820315	-399.9010620117189	1648.8251953125	-697.8937988281251	-431.0487060546876	1544.31103515625	-763.4042358398439	-450.2499084472657	1203.424438476563	-769.0186157226565	-303.7382812500001	1467.0888671875	-763.1549072265626	-328.4069213867188	1499.870239257813	-916.9426879882815	-248.4940032958985	1403.857666015625	-1000.230895996094	-205.3361511230469	1421.666015625	-980.054382324219	-189.4437408447266	1369.211669921875	-1007.775146484375	-89.15916442871095	1331.976806640625	-1007.997924804688	-100.899658203125	1278.373901367188	-960.572204589844	165.7607116699219	1333.266357421875	-883.3588867187502	171.5207672119141	1326.279174804688	-957.5194091796877	248.1464843750001	1333.103149414063	-874.8101196289065	-320.1724548339844	1491.591430664063	-611.0600585937501	-232.2576293945313	1374.698608398438	-520.3739013671876	-190.9581756591797	1394.036376953125	-535.3944091796876	-171.8152160644532	1341.12890625	-515.0211181640626	-81.90962219238283	1316.05224609375	-516.0090332031251	-92.26689910888673	1262.613891601563	-579.1463623046876	165.2471160888672	1331.453979492188	-650.1087646484376	179.0627593994141	1337.869384765625	-574.7970581054689	255.2803497314454	1349.056030273438	-658.7181396484376	-275.2331237792969	1061.49267578125	-907.8350219726565	-265.8577270507813	1038.071166992188	-654.7166748046876	-457.977996826172	1102.026611328125	-768.160339355469	-470.217254638672	1074.64599609375	-798.0241699218752	-470.9493713378907	1068.754028320313	-742.0952758789064	-309.5451660156251	736.8610839843751	-969.4752197265627	-273.6312561035157	661.2896118164064	-954.5391845703127	-233.0655670166016	666.1242065429689	-926.160583496094	-301.6749877929688	609.4867553710939	-948.1058349609377	-303.9670410156251	547.8331909179689	-948.549743652344	-305.1244506835938	540.4370117187501	-810.3645019531252	-263.4730834960938	347.9096069335938	-900.6672363281252	-323.9993591308594	310.5380249023438	-951.0778808593752	-283.0578308105469	301.6614074707032	-932.4170532226565	-286.4495544433594	223.3381958007813	-899.134460449219	-355.9869384765626	110.920768737793	-922.111022949219	-342.5990905761719	134.4038848876953	-839.3702392578127	-416.6664428710939	89.1082229614258	-881.1731567382815	-197.9320526123047	54.2721519470215	-839.501403808594	-195.2777709960938	51.7810401916504	-878.035095214844	-233.0513305664063	35.12060165405274	-933.2544555664065	-363.6035766601563	802.0244140625002	-602.2382812500001	-329.9268188476563	744.9515380859376	-602.8648071289064	-296.2911682128907	745.7608032226564	-604.8707275390626	-358.6265869140626	670.0725708007814	-629.6657104492189	-343.1985778808594	520.7489013671876	-653.7393188476564	-332.1176757812501	516.1224975585939	-784.427429199219	-296.8490600585938	363.4053649902344	-749.5003051757814	-324.0820007324219	277.6218872070313	-687.7669067382814	-298.3765869140626	278.8366088867188	-728.6673583984376	-314.4601440429688	235.8825225830079	-764.9319458007814	-367.5477905273438	102.1120681762696	-723.0780639648439	-356.7987060546876	130.9515838623047	-807.412292480469	-433.9331970214845	83.71683502197267	-782.0269165039065	-208.6211547851563	56.53364181518556	-786.3272094726565	-210.9712066650391	52.1831741333008	-745.4096069335939	-256.4584960937501	34.26459121704102	-699.6257324218751	
169	0.84	-241.2217864990235	1702.761596679688	-801.5967407226565	-373.9175109863282	1669.31689453125	-829.9475097656252	-399.9496459960939	1648.790893554688	-697.3682250976564	-431.0511169433595	1544.290283203125	-762.9624023437501	-450.5277709960939	1203.453735351563	-768.6558837890627	-303.7243347167969	1467.035278320313	-762.6277465820314	-328.4668579101563	1499.826171875	-916.5313720703127	-248.5583648681641	1403.809692382813	-999.8151855468752	-205.4448394775391	1421.640747070313	-979.6420898437502	-189.5276794433594	1369.122802734375	-1007.416809082031	-89.28897857666017	1331.899169921875	-1007.6533203125	-101.0717697143555	1278.28564453125	-960.229919433594	165.658935546875	1333.083374023438	-882.9607543945315	171.3570251464844	1326.164916992188	-957.164733886719	248.1089630126954	1332.85302734375	-874.6707153320315	-320.1756591796876	1491.545166015625	-610.7029418945314	-232.2847442626954	1374.656127929688	-519.8313598632814	-190.968002319336	1394.001586914063	-534.9051513671876	-171.8703308105469	1341.093994140625	-514.5787963867189	-81.95970153808595	1315.993896484375	-515.5913696289064	-92.28681945800783	1262.543579101563	-578.7675170898439	165.1908874511719	1331.239624023438	-649.7666625976564	178.987060546875	1337.685424804688	-574.3690795898439	255.2908172607422	1348.795654296875	-658.4187622070314	-275.8104248046876	1061.451904296875	-907.4693603515627	-266.3093566894532	1037.968139648438	-654.4876098632814	-458.3163146972657	1102.04443359375	-767.8106079101564	-470.637664794922	1074.665161132813	-797.7213134765627	-471.3823852539064	1068.74267578125	-741.7820434570314	-308.3156127929688	736.7683715820314	-969.0592041015627	-272.0691223144532	661.3231811523439	-954.1033935546877	-231.6388092041016	666.3147583007814	-925.731872558594	-299.9543457031251	609.4046020507814	-947.8159179687502	-301.9557189941407	547.8418579101564	-948.3562622070315	-302.5870666503907	540.3175659179689	-810.0544433593752	-262.1633300781251	347.9061279296876	-900.529479980469	-322.9549865722657	310.7489624023438	-950.8848266601565	-282.0963439941407	301.7145080566407	-931.933532714844	-285.7214050292969	223.3580627441407	-898.751159667969	-355.8317260742188	111.2214584350586	-921.9764404296877	-342.3502502441407	134.5493774414063	-839.1590576171877	-416.6246948242189	89.31668090820314	-880.9737548828127	-197.7461090087891	54.3146095275879	-839.3890380859377	-195.3621826171876	51.88074874877931	-877.9460449218752	-233.0509185791016	35.29283142089844	-933.138854980469	-363.9003295898438	801.9214477539065	-602.0452270507814	-330.1600952148438	744.8256225585939	-602.6446533203126	-296.5552062988282	745.7387695312501	-604.5715332031251	-358.7405395507813	670.0146484375001	-629.3999023437501	-343.2023925781251	520.6326904296876	-653.4893188476564	-331.9782409667969	516.1051025390626	-784.0946044921877	-296.8023681640626	363.3453979492188	-749.3492431640626	-324.0477294921876	277.5504455566407	-687.6401977539064	-298.3258972167969	278.7748718261719	-728.5143432617189	-314.4291381835938	235.8455810546876	-764.7821044921876	-367.5899047851563	102.0595092773438	-723.0042114257814	-356.8753662109376	130.9310913085938	-807.3519287109377	-433.9445800781251	83.66451263427736	-781.9564208984377	-208.6199340820313	56.55509567260744	-786.3265380859377	-210.9596557617188	52.1549530029297	-745.3613281250001	-256.4845886230469	34.23669815063477	-699.5936279296876	
170	0.845	-241.1371459960938	1702.734497070313	-801.0119628906252	-373.9110412597657	1669.263061523438	-829.5572509765627	-399.921600341797	1648.670166015625	-696.8796997070314	-431.0845031738282	1544.2529296875	-762.5325317382814	-450.8467407226564	1203.451538085938	-768.2578735351565	-303.7934265136719	1466.9375	-762.1406250000001	-328.5007019042969	1499.7763671875	-915.997741699219	-248.6408233642579	1403.751831054688	-999.499206542969	-205.5524902343751	1421.512939453125	-979.251403808594	-189.6139678955078	1369.059204101563	-1007.036499023438	-89.42652130126955	1331.77880859375	-1007.206298828125	-101.1996765136719	1278.182983398438	-959.8640136718752	165.5521087646485	1332.8076171875	-882.6494140625002	171.2581024169922	1325.96923828125	-956.7732543945315	247.9806518554688	1332.63134765625	-874.3555297851565	-320.2267150878907	1491.497314453125	-610.3220825195314	-232.3187103271485	1374.616333007813	-519.4387207031251	-190.9464416503907	1393.922973632813	-534.4610595703126	-171.9422149658203	1341.069213867188	-514.1537475585939	-82.0072708129883	1315.913330078125	-515.2115478515626	-92.34939575195314	1262.473754882813	-578.3313598632814	165.04443359375	1331.009643554688	-649.4026489257814	178.979248046875	1337.52099609375	-573.9250488281251	255.2485656738282	1348.525512695313	-658.0484619140626	-276.3410949707032	1061.397094726563	-907.0134277343752	-266.6573486328126	1037.79296875	-654.1289672851564	-458.7063903808595	1102.052612304688	-767.4146118164064	-470.992156982422	1074.687866210938	-797.437194824219	-471.7512207031251	1068.74609375	-741.4117431640626	-307.1712341308594	736.8751220703126	-968.6448974609377	-270.5309753417969	661.4063110351564	-953.8450927734377	-230.145980834961	666.7054443359376	-925.3048095703127	-298.0278320312501	609.3275146484376	-947.4695434570315	-299.8890075683594	547.7885131835939	-948.1707763671877	-300.7182922363282	540.3112792968751	-809.8882446289065	-260.7452087402344	347.7794799804688	-900.298278808594	-321.8450927734376	310.9204101562501	-950.7319946289065	-280.9587402343751	301.7465515136719	-931.6138916015627	-284.9461059570313	223.4430389404297	-898.4396972656252	-355.6826782226563	111.5604858398438	-921.820495605469	-342.0816345214844	134.7357635498047	-838.923034667969	-416.5633544921876	89.56973266601564	-880.8018188476565	-197.7494354248047	54.35107421875001	-839.2944335937502	-195.4002075195313	51.9755325317383	-877.9085083007815	-232.9515686035157	35.51390838623048	-933.0238037109377	-364.2295532226563	801.7918090820315	-601.8325805664064	-330.6102600097657	744.7167358398439	-601.9446411132814	-296.7902221679688	745.6686401367189	-604.3081054687501	-358.8374633789063	669.8961791992189	-629.1757812500001	-343.1770324707032	520.5285034179689	-653.2570800781251	-332.7334899902344	516.2509765625001	-783.9304199218752	-296.8107604980469	363.2364196777344	-749.1948852539064	-324.0298767089844	277.3965759277344	-687.5243530273439	-298.2778015136719	278.6965332031251	-728.3739013671876	-314.3750610351563	235.8101806640626	-764.6367797851564	-367.6032714843751	101.9985961914063	-722.9923095703126	-356.8658752441407	130.907943725586	-807.3205566406252	-433.9768676757814	83.67233276367189	-781.920837402344	-208.6343078613282	56.54204559326173	-786.2844848632815	-210.9571380615235	52.13937377929689	-745.3423461914064	-256.4786071777344	34.21088409423829	-699.5606079101564	
